<?xml version="1.0" encoding="UTF-8" standalone="no"?>
<!-- Created with Inkscape (http://www.inkscape.org/) -->

<svg
   width="920"
   height="290"
   viewBox="0 0 243.41666 76.729166"
   version="1.1"
   id="svg1"
   inkscape:version="1.4.3 (0d15f75042, 2025-12-25)"
   sodipodi:docname="banner.svg"
   xmlns:inkscape="http://www.inkscape.org/namespaces/inkscape"
   xmlns:sodipodi="http://sodipodi.sourceforge.net/DTD/sodipodi-0.dtd"
   xmlns="http://www.w3.org/2000/svg"
   xmlns:svg="http://www.w3.org/2000/svg">
  <sodipodi:namedview
     id="namedview1"
     pagecolor="#ffffff"
     bordercolor="#000000"
     borderopacity="0.25"
     inkscape:showpageshadow="2"
     inkscape:pageopacity="0.0"
     inkscape:pagecheckerboard="0"
     inkscape:deskcolor="#d1d1d1"
     inkscape:document-units="mm"
     showguides="true"
     inkscape:zoom="0.99508277"
     inkscape:cx="330.62576"
     inkscape:cy="191.44136"
     inkscape:window-width="2560"
     inkscape:window-height="1368"
     inkscape:window-x="0"
     inkscape:window-y="0"
     inkscape:window-maximized="1"
     inkscape:current-layer="layer1">
    <sodipodi:guide
       position="122.30976,143.73364"
       orientation="1,0"
       id="guide1"
       inkscape:locked="false" />
  </sodipodi:namedview>
  <defs
     id="defs1">
    <rect
       x="0"
       y="-1.0049415"
       width="919.5215"
       height="289.42316"
       id="rect1" />
  </defs>
  <g
     inkscape:label="Layer 1"
     inkscape:groupmode="layer"
     id="layer1">
    <path
       d="m 86.976,162.19414 q -0.192,2.688 -3.264,5.376 -2.88,2.688 -4.416,5.568 -5.184,1.344 -7.104,4.992 -1.728,3.456 -2.304,7.68 -0.384,4.224 -1.536,7.488 -1.152,7.68 -4.992,14.208 -3.84,6.528 -6.912,13.44 -3.456,4.032 -9.024,5.76 -5.376,1.92 -10.752,2.496 -5.184,0.576 -8.448,0.768 -2.88,-4.224 -3.072,-9.408 0,-5.184 2.304,-10.176 2.304,-4.8 6.336,-7.872 0,-2.88 1.728,-4.8 1.728,-1.92 3.84,-3.84 2.112,-1.92 3.264,-4.608 0.96,-1.536 3.648,-3.84 2.88,-2.496 5.952,-5.184 3.264,-2.88 5.952,-5.568 2.688,-2.88 3.648,-4.8 1.152,-2.112 1.728,-5.568 0.576,-3.456 0.768,-6.528 0.192,-3.264 0,-4.608 -1.92,0.96 -3.648,2.688 -1.728,1.536 -3.456,3.072 -3.072,3.072 -6.528,5.76 -3.456,2.496 -8.448,2.496 -5.376,-2.304 -9.6,-6.528 -4.224,-4.224 -6.912,-8.064 -4.224,-14.4 -8.832,-28.608 -4.416,-14.208 -6.528,-30.911999 1.92,1.344 4.992,5.568 3.072,4.031999 6.336,9.791999 3.264,5.568 5.568,11.904 2.496,6.336 2.688,12.48 3.84,3.072 5.568,8.256 1.728,5.184 4.224,9.6 4.224,-0.96 8.64,-3.84 4.608,-3.072 7.872,-6.912 2.304,-2.88 4.992,-8.064 2.88,-5.376 4.992,-10.752 2.304,-5.568 2.88,-8.832 0,-0.576 0.192,-1.728 0,-1.728 0.384,-3.456 0.384,-1.92 1.92,-3.072 1.536,0.768 2.112,0.384 0.576,-0.384 1.152,-1.344 0.192,-0.192 0.192,-0.192 5.76,0.768 7.872,4.224 2.304,3.456 2.304,8.256 0,4.416 -1.92,9.6 -1.728,4.992 -4.032,9.6 -2.304,4.416 -3.648,7.296 0.96,2.112 0.576,6.144 -0.384,3.84 -2.88,5.952 0.384,4.8 2.688,4.608 2.304,-0.192 5.568,-4.608 0.576,0.768 1.92,2.688 1.344,1.728 2.304,3.456 1.152,1.536 1.152,2.112 z m -28.608,27.84 q -2.688,1.728 -6.528,5.184 -3.84,3.648 -7.296,8.064 -3.456,4.608 -5.568,9.024 -1.92,4.608 -0.96,8.256 1.344,0.576 4.416,-0.192 3.072,-0.768 3.264,-1.152 1.152,-1.728 3.264,-5.376 2.304,-3.456 4.416,-7.872 2.304,-4.224 3.648,-8.64 1.536,-4.224 1.344,-7.296 z m 139.58403,-52.608 q 0,0.192 -0.576,1.152 -0.96,1.536 -2.688,4.608 -1.536,2.88 -2.88,6.144 -1.152,3.072 -1.152,5.184 -0.768,-0.192 -2.112,1.536 -1.344,1.728 -2.496,3.648 -0.96,1.728 -0.96,2.496 -2.688,2.88 -5.184,6.72 -2.304,3.648 -5.184,6.912 -2.688,3.072 -6.912,4.224 -1.152,1.536 -3.264,3.648 -2.112,1.92 -4.032,1.344 -1.728,2.688 -5.376,3.84 -3.648,1.152 -7.104,1.92 -3.264,0.576 -4.224,2.496 -1.92,-0.576 -3.264,-0.384 -1.344,0.384 -2.688,0.768 -0.768,0.384 -1.536,0.576 -0.576,0.192 -1.536,0.384 -5.76,-1.92 -9.6,-3.84 -3.84,-1.92 -6.144,-6.912 0.576,-0.96 0.192,-2.304 -0.192,-1.536 -0.576,-3.072 -0.576,-1.92 -0.96,-3.648 -0.192,-1.728 0.96,-2.496 -2.112,-6.336 -1.344,-12.096 0.96,-5.952 2.496,-12.288 0.96,-3.264 1.728,-6.912 0.768,-3.648 1.344,-7.68 0.96,-0.576 1.728,-0.576 1.536,-8.448 6.912,-15.744 5.568,-7.296 10.56,-13.632 1.344,-0.192 2.688,-0.576 1.344,-0.576 2.688,-0.96 3.456,-1.344 6.528,-1.728 3.072,-0.575999 4.8,2.688 1.344,-0.384 4.608,-0.192 3.456,0.192 7.104,0.768 3.648,0.384 5.184,1.152 2.496,0.96 5.952,3.264 3.456,2.112 6.528,4.416 3.264,2.304 4.8,4.224 1.536,1.344 2.496,3.648 0.96,2.304 1.152,4.416 0.96,0 1.344,3.072 0.384,2.88 0.384,6.144 0,3.072 -0.384,3.648 z m -14.976,-6.912 q -0.96,-0.576 -2.88,-1.728 -1.728,-1.152 -2.88,-2.88 -1.152,-1.728 -0.576,-3.84 -1.536,0.192 -2.304,-0.192 -0.768,-0.384 -1.344,-0.96 -0.192,-0.192 -0.384,-0.192 -2.496,-2.112 -6.72,-3.072 -4.224,-0.96 -9.024,-1.728 -4.608,-0.768 -8.832,-1.92 -5.76,6.528 -10.176,17.28 -4.224,10.56 -6.144,22.464 -1.92,11.712 -1.152,22.08 0.96,0.576 1.92,0.768 0.96,0 2.112,-0.192 0.768,0 1.728,0 0.96,0 1.92,0.192 0.192,1.344 1.344,1.92 1.344,0.576 1.728,-0.576 2.304,-1.728 6.528,-4.608 4.416,-2.88 7.488,-5.184 0.576,0 1.728,0 1.92,-0.192 4.032,-0.384 2.112,-0.192 3.072,-1.344 -0.384,-0.384 -1.344,-0.576 -0.768,-0.192 -1.344,-0.384 -0.384,-0.384 -0.192,-1.536 2.304,-0.576 5.184,-3.84 3.072,-3.264 5.76,-6.528 2.88,-3.456 4.416,-3.84 -0.192,-1.728 0.576,-3.072 0.96,-1.536 2.112,-3.072 1.152,-1.536 1.92,-3.072 0.96,-1.728 -0.384,-3.456 1.92,-0.576 2.112,-1.728 0.192,-1.152 0,-2.688 -0.192,-1.344 0,-2.112 z m -38.592,-15.744 q -0.576,-0.192 -0.576,-0.96 0,-0.768 -1.152,-0.576 -4.8,6.72 -7.104,13.44 -2.112,6.528 -5.568,15.168 0.384,0.192 0.768,0.96 0.192,0.384 0.384,0.576 0.384,0 1.152,-0.96 0.96,-4.224 3.264,-9.216 2.304,-4.992 4.8,-9.792 2.496,-4.992 4.032,-8.64 z m 151.29589,4.224 q 2.496,4.608 1.344,7.104 -1.152,2.304 -2.88,4.224 -0.768,0.96 -1.536,1.92 -0.576,0.768 -0.768,1.92 -3.264,0.96 -6.912,3.648 -3.648,2.688 -6.528,5.568 -2.688,2.88 -4.032,4.608 -3.84,1.344 -2.496,3.072 1.344,1.728 3.84,3.84 1.152,0.96 2.304,1.92 1.152,0.96 1.728,1.92 0.576,1.92 0,2.88 -0.384,0.768 -1.152,1.536 -0.384,0.384 -0.96,0.96 -0.384,0.576 -0.768,1.344 -3.84,0.768 -6.72,-0.192 -2.688,-0.96 -5.376,-2.496 -0.96,-0.576 -2.112,-1.152 -1.152,-0.576 -2.304,-1.152 -4.032,0.192 -4.992,2.112 -0.96,1.92 -0.96,4.608 -1.344,1.728 -2.88,4.032 -1.344,2.112 -1.92,3.648 6.336,3.072 14.016,3.456 7.872,0.192 16.704,-0.192 3.264,0 6.528,0 3.264,-0.192 6.72,-0.192 1.92,0.96 1.92,2.496 0.192,1.344 -0.192,3.072 -0.192,0.96 -0.384,2.112 0,0.96 0.384,1.92 -4.608,2.88 -11.904,4.416 -7.104,1.728 -15.36,1.536 -8.064,0 -15.552,-2.304 -7.68,-2.304 -13.44,-7.296 -5.568,-4.992 -6.912,-13.248 1.728,-1.728 4.8,-3.072 3.072,-1.536 3.264,-4.608 1.728,0.384 4.032,-2.304 2.496,-2.688 4.032,-5.952 1.728,-3.456 1.152,-4.8 -0.96,-2.688 -3.84,-5.376 -2.88,-2.88 -4.416,-4.992 1.536,-1.728 4.416,-1.344 3.072,0.384 6.336,1.728 3.264,1.152 5.76,2.496 4.416,-4.416 8.448,-9.216 4.032,-4.992 6.336,-11.712 -1.92,-2.304 -5.952,-3.264 -4.032,-1.152 -9.024,-1.536 -4.8,-0.576 -9.024,-1.152 -5.376,-0.768 -11.904,-1.728 -6.528,-0.96 -11.712,-2.304 -5.184,-1.536 -6.912,-3.648 8.448,-3.84 19.584,-4.8 11.328,-1.152 22.848,0.384 11.52,1.344 20.928,5.376 9.408,3.84 14.4,10.176 z m 107.71197,68.736 q -1.152,-0.384 -1.536,0.384 -0.384,0.768 -0.768,1.92 -0.384,1.344 -1.152,2.304 -0.576,1.152 -2.112,0.192 -1.152,-4.224 -1.536,-9.024 -0.384,-4.992 -1.344,-9.408 -0.96,-4.416 -3.84,-6.912 -3.84,4.224 -8.832,8.256 -4.992,4.032 -6.144,7.296 -1.536,0.768 -3.264,1.536 -1.536,0.768 -3.072,1.728 -5.376,2.688 -11.136,4.992 -5.568,2.304 -11.52,1.536 -5.376,-0.768 -11.328,-2.688 -5.76,-2.112 -9.024,-6.336 -0.576,-1.344 -0.576,-2.304 0,-1.152 -1.536,-1.92 3.072,-25.728 14.016,-43.2 11.136,-17.472 29.568,-28.608 0.576,-0.96 1.536,-1.344 1.152,-0.576 1.536,-1.728 2.688,1.728 5.952,2.496 3.456,0.768 6.72,0.96 6.528,9.408 10.752,21.312 4.416,11.712 8.64,23.616 -0.192,2.688 0.192,5.568 0.384,2.688 0.96,5.568 0.96,5.568 1.344,11.712 0.384,5.952 -2.496,12.096 z m -14.784,-35.52 q -0.384,-1.92 -1.728,-7.104 -1.344,-5.184 -3.648,-11.136 -2.112,-5.952 -4.992,-10.368 -2.688,-4.608 -5.76,-4.8 -8.64,5.76 -14.016,13.056 -5.184,7.104 -9.024,15.744 -3.648,8.64 -8.256,19.008 0.576,0.576 0.576,1.728 0,0.96 -0.384,2.112 -0.192,1.152 -0.384,2.304 0,1.152 0.576,1.728 6.528,1.728 12.288,0 5.76,-1.92 11.136,-4.416 3.456,-1.728 6.72,-2.88 3.264,-1.344 6.336,-1.344 0.192,-1.92 2.304,-4.608 2.112,-2.688 4.608,-5.184 2.496,-2.688 3.648,-3.84 z m 130.3679,-19.008 q -2.688,0.768 -5.568,5.76 -2.688,4.8 -6.528,10.752 -3.84,5.952 -9.6,10.368 2.688,3.648 6.528,8.064 3.84,4.224 7.872,8.448 4.032,4.224 6.912,7.872 -3.072,3.264 -6.144,4.032 -2.88,0.768 -5.76,-0.192 -3.264,-1.152 -7.488,-4.416 -4.032,-3.264 -7.872,-6.72 -3.84,-3.648 -6.72,-5.184 -1.92,2.112 -5.568,5.568 -3.648,3.264 -7.872,6.72 -4.224,3.264 -8.256,5.376 -4.032,2.112 -6.912,1.536 -1.92,1.728 -6.144,1.92 -4.032,0.192 -8.448,-1.152 -4.224,-1.344 -7.296,-4.416 -2.88,-3.264 -2.304,-8.256 1.344,-0.192 1.728,-1.152 0.384,-1.152 1.92,-1.344 -1.344,-3.264 -1.152,-5.76 0.384,-2.688 1.152,-5.376 0.384,-1.728 0.768,-3.648 0.576,-2.112 0.576,-4.416 0.96,0 2.112,-3.648 1.152,-3.648 2.688,-9.216 1.536,-5.76 3.648,-12.288 2.112,-6.528 4.8,-12.48 0.576,0.192 2.112,-2.688 1.728,-2.88 3.648,-7.296 2.112,-4.608 3.84,-9.216 1.728,-4.799999 2.496,-8.255999 5.568,-8.448 10.944,-17.28 5.568,-8.832 11.904,-16.512 1.92,0.192 3.648,-0.384 1.728,-0.768 3.456,-1.728 0.192,1.92 -0.384,3.072 -0.384,0.96 -0.96,1.92 -0.576,0.96 -1.152,2.304 -0.384,1.152 -0.384,3.264 -0.384,1.152 -1.92,4.8 -1.344,3.648 -3.456,7.488 -1.92,3.84 -4.416,5.76 -2.496,6.528 -4.608,11.136 -2.112,4.607999 -4.032,8.447999 -1.92,3.84 -3.84,8.256 -1.92,4.224 -4.032,10.368 -0.384,1.152 -0.96,2.112 -0.384,0.96 -0.96,1.92 -1.152,2.496 -2.112,4.992 -0.768,2.496 0,5.952 3.072,-0.96 3.84,-1.152 0.768,-0.384 3.456,-1.152 0.384,-1.344 -0.192,-1.92 -0.384,-0.768 -0.96,-1.344 -1.344,-0.768 -1.344,-1.728 5.184,-3.456 11.136,-5.952 5.952,-2.688 11.328,-4.224 4.416,-1.344 9.792,-1.728 5.568,-0.576 10.176,0.576 4.8,0.96 6.336,4.416 2.688,0 4.032,3.072 1.344,2.88 2.496,5.952 z m -43.392,29.376 q -2.688,-4.032 -6.72,-7.488 -4.032,-3.456 -7.488,-7.104 -3.264,-3.84 -4.416,-8.448 -0.768,0.192 -1.728,1.728 -0.96,1.344 -1.344,2.88 -0.192,1.344 1.344,1.92 -3.264,7.488 -5.376,14.592 -1.92,6.912 -4.032,16.128 0.384,0.192 1.344,0.192 1.344,0.384 2.304,0.96 1.152,0.384 0.96,1.92 3.072,0.384 7.296,-2.304 4.224,-2.688 8.448,-6.336 4.224,-3.648 7.296,-6.528 0.576,-0.576 1.152,-1.152 0.576,-0.576 0.96,-0.96 z m 28.032,-30.72 q -4.032,-1.152 -9.984,-0.192 -5.76,0.768 -11.328,2.688 -5.376,1.92 -8.448,4.416 1.344,1.536 3.456,4.416 2.112,2.88 4.608,5.568 2.496,2.496 5.184,3.648 2.496,-1.344 4.608,-4.224 2.112,-2.88 4.416,-5.376 2.304,-2.688 4.8,-2.688 -0.192,-0.576 0.384,-1.728 0.576,-1.152 1.344,-2.304 0.768,-1.536 1.344,-2.688 0.576,-1.344 -0.384,-1.536 z m 139.58403,-12.864 q 0.96,4.224 0.384,9.408 -0.384,4.992 -1.344,10.176 -0.576,3.648 -1.152,7.296 -0.384,3.456 -0.384,6.912 0,0.96 -0.384,2.304 -0.384,1.344 -0.768,2.88 -0.768,3.072 -1.344,5.952 -0.576,2.688 0.96,3.264 -0.384,2.304 -0.96,7.104 -0.384,4.608 -1.152,9.216 -0.576,4.416 -1.92,6.528 -2.688,-0.192 -4.992,0.384 -2.304,0.384 -2.688,2.496 -4.8,-2.112 -6.72,-6.144 -1.728,-4.224 -1.92,-9.6 -0.192,-3.648 0.576,-8.256 0.96,-4.608 2.112,-9.216 1.344,-6.528 2.112,-11.904 0.768,-5.568 -1.152,-7.488 -2.688,1.92 -4.032,4.992 -1.344,2.88 -3.072,5.568 -1.536,2.496 -5.184,3.456 -0.192,3.648 -2.496,7.488 -2.304,3.648 -5.376,7.296 -3.072,3.648 -5.376,7.296 -2.304,3.648 -2.496,7.296 -4.8,2.88 -8.64,6.336 -3.84,3.456 -10.176,5.568 -1.728,-1.344 -5.184,-2.112 -3.264,-0.768 -5.184,0.576 -2.496,-0.96 -4.032,-2.496 -1.536,-1.536 -4.032,-2.304 -4.8,-6.72 -6.528,-15.168 -1.536,-8.64 -1.152,-17.472 0.576,-9.024 2.112,-16.32 0.576,-2.496 1.92,-4.416 1.344,-1.92 2.112,-4.416 1.92,-5.376 3.456,-11.328 1.728,-6.144 4.416,-11.136 2.88,-4.992 8.064,-6.528 -0.768,8.064 -2.304,15.744 -1.344,7.488 -2.688,14.592 -2.688,12.864 -4.224,24.192 -1.536,11.328 1.728,21.504 3.84,0.768 9.216,-2.304 5.376,-3.264 11.52,-9.024 6.144,-5.952 12.288,-13.056 6.144,-7.296 11.52,-14.4 5.376,-7.296 9.216,-13.248 3.84,-5.952 5.184,-9.024 0.768,-4.992 1.728,-7.872 0.96,-2.88 3.456,-7.104 4.992,-1.536 9.216,1.152 4.416,2.496 5.376,6.336 0.192,1.152 0.192,2.112 0,0.96 0,2.112 0,0.96 -0.192,2.304 0,1.152 0.384,2.496 z m 116.92786,11.904 q -2.112,0.576 -3.84,2.112 -1.728,1.536 -3.456,3.072 -1.536,1.344 -4.032,1.344 -2.496,-3.072 -3.648,-7.488 -0.96,-4.416 -2.304,-8.64 -1.344,-4.224 -4.992,-6.144 -1.536,0.192 -4.224,1.536 -2.496,1.344 -4.608,3.072 -2.112,1.536 -1.92,3.264 -1.728,0.768 -3.84,2.688 -1.92,1.92 -3.072,3.84 -1.152,1.92 -0.768,3.072 -1.536,0.576 -2.112,2.304 -0.576,1.536 -1.344,3.072 -0.576,1.536 -2.496,1.92 0,0.576 0.384,1.152 0.576,0.768 0,1.152 -4.416,5.568 -7.296,14.016 -2.88,8.256 -5.376,17.28 -2.496,8.832 -5.568,16.32 -2.112,1.344 -4.032,2.88 -1.728,1.728 -3.84,3.072 -3.456,-2.112 -6.528,-4.608 -3.072,-2.496 -5.376,-5.568 2.496,-0.96 2.496,-3.072 0.192,-2.304 0.192,-4.608 0.192,-2.304 2.688,-3.072 2.304,-11.136 3.648,-24.576 1.536,-13.632 3.456,-27.072 1.92,-13.44 5.184,-24.191999 1.92,1.919999 2.304,4.799999 0.576,2.88 0.768,5.376 0.576,7.488 0.384,14.4 0,6.912 0.768,13.824 8.256,-10.176 16.512,-19.2 8.256,-9.024 18.432,-16.32 7.296,-2.495999 12.672,-0.576 5.568,1.728 9.024,5.952 3.84,4.416 5.184,10.944 1.536,6.336 0.576,12.672 z m 100.41595,56.832 q -1.152,-0.384 -1.536,0.384 -0.384,0.768 -0.768,1.92 -0.384,1.344 -1.152,2.304 -0.576,1.152 -2.112,0.192 -1.152,-4.224 -1.536,-9.024 -0.384,-4.992 -1.344,-9.408 -0.96,-4.416 -3.84,-6.912 -3.84,4.224 -8.832,8.256 -4.992,4.032 -6.144,7.296 -1.536,0.768 -3.264,1.536 -1.536,0.768 -3.072,1.728 -5.376,2.688 -11.136,4.992 -5.568,2.304 -11.52,1.536 -5.376,-0.768 -11.328,-2.688 -5.76,-2.112 -9.024,-6.336 -0.576,-1.344 -0.576,-2.304 0,-1.152 -1.536,-1.92 3.072,-25.728 14.016,-43.2 11.136,-17.472 29.568,-28.608 0.576,-0.96 1.536,-1.344 1.152,-0.576 1.536,-1.728 2.688,1.728 5.952,2.496 3.456,0.768 6.72,0.96 6.528,9.408 10.752,21.312 4.416,11.712 8.64,23.616 -0.192,2.688 0.192,5.568 0.384,2.688 0.96,5.568 0.96,5.568 1.344,11.712 0.384,5.952 -2.496,12.096 z m -14.784,-35.52 q -0.384,-1.92 -1.728,-7.104 -1.344,-5.184 -3.648,-11.136 -2.112,-5.952 -4.992,-10.368 -2.688,-4.608 -5.76,-4.8 -8.64,5.76 -14.016,13.056 -5.184,7.104 -9.024,15.744 -3.648,8.64 -8.256,19.008 0.576,0.576 0.576,1.728 0,0.96 -0.384,2.112 -0.192,1.152 -0.384,2.304 0,1.152 0.576,1.728 6.528,1.728 12.288,0 5.76,-1.92 11.136,-4.416 3.456,-1.728 6.72,-2.88 3.264,-1.344 6.336,-1.344 0.192,-1.92 2.304,-4.608 2.112,-2.688 4.608,-5.184 2.496,-2.688 3.648,-3.84 z"
       id="text1"
       style="font-size:192px;font-family:'Yuji Boku';-inkscape-font-specification:'Yuji Boku, Normal';letter-spacing:0px;white-space:pre;fill:#f08bb9"
       transform="matrix(0.26458333,0,0,0.26458333,6.3813787,1.0635631)"
       aria-label="yozakura" />
  </g>
</svg>
